<svg xmlns="http://www.w3.org/2000/svg" viewBox="0 0 512 512" role="img" aria-label="Chat bubble with download archive">
  <defs>
    <linearGradient id="bg" x1="72" y1="54" x2="438" y2="462" gradientUnits="userSpaceOnUse">
      <stop stop-color="#3B82F6"/>
      <stop offset="0.55" stop-color="#2563EB"/>
      <stop offset="1" stop-color="#1D4ED8"/>
    </linearGradient>
    <filter id="shadow" x="-20%" y="-20%" width="140%" height="140%">
      <feDropShadow dx="0" dy="18" stdDeviation="18" flood-color="#0B1220" flood-opacity="0.24"/>
    </filter>
  </defs>
  <rect x="28" y="28" width="456" height="456" rx="116" fill="url(#bg)"/>
  <g>
    <path d="M122 130c0-27.6 22.4-50 50-50h174c27.6 0 50 22.4 50 50v138c0 27.6-22.4 50-50 50H232l-76 58c-13.2 10.1-32 0.7-32-15.9V318h-2c-27.6 0-50-22.4-50-50V130h50z" fill="#fff"/>
    <rect x="132" y="146" width="204" height="24" rx="12" fill="#DCEAFE"/>
    <rect x="132" y="198" width="154" height="24" rx="12" fill="#DCEAFE"/>
  </g>
  <g>
    <rect x="278" y="270" width="154" height="154" rx="45" fill="#14B8A6"/>
    <path d="M355 303v62m0 0-29-29m29 29 29-29" fill="none" stroke="#fff" stroke-width="24" stroke-linecap="round" stroke-linejoin="round"/>
    <path d="M316 388h78" fill="none" stroke="#fff" stroke-width="22" stroke-linecap="round"/>
  </g>
</svg>
